<svg width="270" height="105" viewBox="0 0 270 105" fill="none" xmlns="http://www.w3.org/2000/svg">
<path d="M43.8882 48V47.64C39.2682 47.64 39.2682 46.14 39.2682 39V24.06C39.2682 21.72 39.2682 16.02 31.4082 16.02C26.3682 16.02 22.8882 18.36 19.6482 21.18V21.54C21.0282 20.4 22.4082 19.92 23.6682 19.92C26.3082 19.92 26.3082 22.5 26.3082 25.62V39C26.3082 46.14 26.3082 47.64 22.8882 47.64V48H43.8882ZM65.3082 48V47.64C60.6882 47.64 60.6882 46.14 60.6882 39V24.06C60.6882 21.72 60.6882 16.02 52.8282 16.02C47.7882 16.02 44.3082 18.36 41.0682 21.18V21.54C42.4482 20.4 43.8282 19.92 45.0882 19.92C47.7282 19.92 47.7282 22.5 47.7282 25.62V39C47.7282 46.14 47.7282 47.64 44.3082 47.64V48H65.3082ZM21.2682 48V47.64C17.8482 47.64 17.8482 46.14 17.8482 39V16.08L0.0282031 20.1V20.46C5.0682 19.38 4.8882 21.18 4.8882 24.96V39C4.8882 46.14 4.8882 47.64 0.268203 47.64V48H21.2682ZM75.8504 30.18C78.8504 30.18 81.9104 28.26 82.1504 24.66C78.0104 23.88 77.7104 16.68 82.7504 16.38V16.02C76.2704 16.02 69.6104 18.18 69.6104 24.24C69.6104 28.08 72.4304 30.18 75.8504 30.18ZM94.6304 48.24C99.3704 48.24 103.09 45.96 105.19 44.1L105.01 43.8C104.59 44.1 103.87 44.4 103.09 44.4C100.33 44.4 100.15 41.64 100.15 38.76V28.26C100.15 18.3 93.4904 16.02 84.5504 16.02V16.38C87.0104 16.74 87.2504 19.08 87.2504 22.62V41.88C87.2504 45.36 89.4104 48.24 94.6304 48.24ZM74.8904 48.48C79.4504 48.48 83.6504 46.8 86.0504 43.14V42.78C85.2704 43.8 84.4304 44.04 83.5904 44.04C81.6704 44.04 80.3504 42 80.3504 38.46C80.3504 33.96 81.6704 31.74 85.4504 29.7V29.34C77.4104 33.48 66.8504 32.82 66.8504 41.22C66.8504 45.9 70.2704 48.48 74.8904 48.48ZM127.775 16.5L120.575 16.08V4.56H120.455C118.235 10.8 111.935 15.6 103.655 16.56V16.86H107.615V39.66C107.615 42.48 107.615 48.54 115.715 48.54C121.175 48.54 125.255 45.78 127.775 43.44L127.535 43.2C127.055 43.62 125.675 44.46 124.055 44.46C120.755 44.46 120.575 41.88 120.575 38.22V17.34L127.775 16.86V16.5ZM146.289 48.48C155.589 48.48 160.989 43.68 164.049 36.6L163.689 36.42C161.289 39.06 157.509 40.08 154.269 40.08C145.389 40.08 142.029 34.08 142.029 26.76C142.029 21.18 144.009 17.1 147.549 16.38V16.02C136.989 16.44 129.429 23.1 129.429 32.76C129.429 42.3 136.809 48.48 146.289 48.48ZM156.549 30.6C159.369 30.6 162.909 28.86 162.909 24.54C162.909 18.18 155.229 16.02 149.349 16.02V16.38C154.509 16.62 154.809 24.12 150.429 24.96C150.669 28.62 153.489 30.6 156.549 30.6ZM184.51 48V47.64C181.09 47.64 181.09 46.14 181.09 39V0.599999L163.27 4.62V4.98C168.31 3.9 168.13 5.7 168.13 9.48V39C168.13 46.14 168.13 47.64 163.51 47.64V48H184.51ZM207.73 48V47.64C203.11 47.64 203.11 46.14 203.11 39V24.06C203.11 21.66 203.11 16.02 195.13 16.02C190.21 16.02 186.61 18.18 182.89 21.18V21.54C184.27 20.4 185.65 19.92 186.91 19.92C190.15 19.92 190.15 22.5 190.15 25.62V39C190.15 46.14 190.15 47.64 186.73 47.64V48H207.73ZM70.4312 104V103.64C65.8112 103.64 65.8112 102.14 65.8112 95V80.06C65.8112 77.72 65.8112 72.02 57.9512 72.02C52.9112 72.02 49.4312 74.36 46.1912 77.18V77.54C47.5712 76.4 48.9512 75.92 50.2112 75.92C52.8512 75.92 52.8512 78.5 52.8512 81.62V95C52.8512 102.14 52.8512 103.64 49.4312 103.64V104H70.4312ZM91.8512 104V103.64C87.2312 103.64 87.2312 102.14 87.2312 95V80.06C87.2312 77.72 87.2312 72.02 79.3712 72.02C74.3312 72.02 70.8512 74.36 67.6112 77.18V77.54C68.9912 76.4 70.3712 75.92 71.6312 75.92C74.2712 75.92 74.2712 78.5 74.2712 81.62V95C74.2712 102.14 74.2712 103.64 70.8512 103.64V104H91.8512ZM47.8112 104V103.64C44.3912 103.64 44.3912 102.14 44.3912 95V72.08L26.5712 76.1V76.46C31.6112 75.38 31.4312 77.18 31.4312 80.96V95C31.4312 102.14 31.4312 103.64 26.8112 103.64V104H47.8112ZM102.393 86.18C105.393 86.18 108.453 84.26 108.693 80.66C104.553 79.88 104.253 72.68 109.293 72.38V72.02C102.813 72.02 96.1534 74.18 96.1534 80.24C96.1534 84.08 98.9734 86.18 102.393 86.18ZM121.173 104.24C125.913 104.24 129.633 101.96 131.733 100.1L131.553 99.8C131.133 100.1 130.413 100.4 129.633 100.4C126.873 100.4 126.693 97.64 126.693 94.76V84.26C126.693 74.3 120.033 72.02 111.093 72.02V72.38C113.553 72.74 113.793 75.08 113.793 78.62V97.88C113.793 101.36 115.953 104.24 121.173 104.24ZM101.433 104.48C105.993 104.48 110.193 102.8 112.593 99.14V98.78C111.813 99.8 110.973 100.04 110.133 100.04C108.213 100.04 106.893 98 106.893 94.46C106.893 89.96 108.213 87.74 111.993 85.7V85.34C103.953 89.48 93.3934 88.82 93.3934 97.22C93.3934 101.9 96.8134 104.48 101.433 104.48ZM154.904 104V103.64C149.684 103.64 149.684 102.14 149.684 95V72.08L131.864 76.1V76.46C136.904 75.38 136.724 77.18 136.724 80.96V95C136.724 102.14 136.724 103.64 132.104 103.64V104H154.904ZM161.744 86.9C165.704 86.9 168.824 83.54 168.824 79.52C168.824 74.78 165.104 72.08 160.844 72.08C157.484 72.08 153.944 73.82 151.484 78.02V78.5C152.564 76.88 154.004 75.2 156.164 75.2C157.784 75.2 158.984 76.22 158.984 78.38C158.984 80.42 157.664 82.4 155.864 83.06C157.124 86.06 159.404 86.9 161.744 86.9ZM189.315 104V103.64C185.895 103.64 185.895 102.14 185.895 95V56.6L168.075 60.62V60.98C173.115 59.9 172.935 61.7 172.935 65.72V95C172.935 102.14 172.935 103.64 168.315 103.64V104H189.315ZM191.775 81.38C197.295 76.34 202.635 72.86 208.455 72.86V72.5H191.235V72.86C197.775 72.86 193.455 79.34 191.415 81.38H191.775ZM204.315 104.72C206.835 104.72 210.315 104.6 213.615 104V103.64C210.015 103.82 208.875 100.94 206.595 94.16C204.675 88.52 203.295 82.88 196.395 82.88C192.975 82.88 189.975 83.9 187.695 85.4V85.76C189.675 84.56 190.695 85.52 191.355 88.04C193.515 96.26 192.795 104.72 204.315 104.72ZM245.485 92.42C243.085 95.06 239.305 96.08 236.065 96.08C227.185 96.08 223.825 90.08 223.825 82.76C223.825 77.18 225.805 73.1 229.345 72.38V72.02C218.785 72.44 211.225 79.1 211.225 88.76C211.225 98.3 218.605 104.48 228.085 104.48C237.385 104.48 242.785 99.68 245.845 92.6L245.485 92.42ZM225.685 84.56V85.1H244.525C246.625 77.42 241.525 72.02 231.145 72.02V72.38C234.505 72.74 233.965 80.48 232.645 84.56H225.685ZM269.279 72.5L262.079 72.08V60.56H261.959C259.739 66.8 253.439 71.6 245.159 72.56V72.86H249.119V95.66C249.119 98.48 249.119 104.54 257.219 104.54C262.679 104.54 266.759 101.78 269.279 99.44L269.039 99.2C268.559 99.62 267.179 100.46 265.559 100.46C262.259 100.46 262.079 97.88 262.079 94.22V73.34L269.279 72.86V72.5Z" fill="white"/>
</svg>
